<svg version="1.2" xmlns="http://www.w3.org/2000/svg" viewBox="0 0 500 130" width="500" height="130">
	<title>logo</title>
	<style>
		.s0 { fill: #ffffff } 
		.s1 { fill: #2edf85 } 
		.s2 { fill: #000000 } 
		.s3 { fill: #ff8ff5 } 
	</style>
	<path id="QuickADB" class="s0" aria-label="QuickADB"  d="m78.9 86.1l-5.5-8.2q-6.5 2.6-13.6 2.6-7.6 0-14-2.7-6.4-2.7-11.1-7.4-4.7-4.7-7.4-11-2.6-6.3-2.6-13.7 0-7.3 2.6-13.7 2.7-6.3 7.4-10.9 4.7-4.8 11.1-7.5 6.4-2.7 14-2.7 7.5 0 13.9 2.7 6.4 2.7 11.1 7.5 4.7 4.6 7.3 10.9 2.7 6.4 2.7 13.7 0 7.5-2.8 14-2.8 6.6-7.8 11.3l5.3 8zm-13.5-20.1l-6.9-10.5 10.6-7.2 7 10.6q2-2.6 3.1-5.9 1.1-3.4 1.1-7.3 0-4.7-1.6-8.5-1.5-3.9-4.3-6.7-2.8-2.8-6.6-4.3-3.8-1.5-8-1.5-4.4 0-8.1 1.5-3.7 1.5-6.5 4.3-2.8 2.8-4.4 6.7-1.6 3.8-1.6 8.5 0 4.8 1.6 8.7 1.6 3.8 4.4 6.6 2.8 2.8 6.5 4.3 3.7 1.5 8.1 1.5 2.9 0 5.6-0.8zm69.5 13v-5.7h-0.9q-4.7 7.2-14 7.2-8.5 0-12.7-5.5-4.2-5.5-4.2-14.4v-27.1h14v25.5q0 3.8 1.7 6.2 1.8 2.3 5.5 2.3 4.8 0 7.2-3.6 2.5-3.7 2.5-9.5v-20.9h13.9v45.5zm31.2-50.6q-1.9 0-3.5-0.6-1.5-0.8-2.7-1.9-1.2-1.2-1.9-2.8-0.7-1.5-0.7-3.4 0-1.8 0.7-3.3 0.7-1.7 1.9-2.8 1.2-1.2 2.7-1.9 1.6-0.7 3.5-0.7 1.8 0 3.3 0.7 1.7 0.7 2.8 1.9 1.2 1.1 1.9 2.8 0.7 1.5 0.7 3.3 0 1.9-0.7 3.4-0.7 1.6-1.9 2.8-1.1 1.1-2.8 1.9-1.5 0.6-3.3 0.6zm7 50.6h-14v-45.5h14zm42.1-17.2l12.8 5.5q-3.3 6.2-8.9 9.7-5.5 3.5-13.4 3.5-5.3 0-9.9-1.8-4.4-1.9-7.8-5-3.2-3.3-5.1-7.8-1.7-4.4-1.7-9.7 0-5.3 1.7-9.8 1.9-4.5 5.1-7.6 3.4-3.3 7.8-5 4.6-1.9 9.9-1.9 7.8 0 13.4 3.4 5.7 3.5 8.4 9.5l-12.9 5.4q-1.5-2.7-3.6-4-2-1.3-5.3-1.3-4.5 0-7.6 3.1-3 3-3 8.2 0 5.2 3 8.3 3.1 2.9 7.6 2.9 3.3 0 5.6-1.4 2.3-1.5 3.9-4.2zm20.3 17.2v-66.6h13.9v33.8h0.9l13.1-12.8h17v0.9l-16.5 15.8 18.2 27.9v1h-16.4l-11.6-19.3-4.7 4.5v14.8z"/>
	<path id="QuickADB" class="s1" aria-label="QuickADB"  d="m282.8 79l24.9-66.6h16.7l25 66.6h-16l-5.1-14.9h-24.4l-5.1 14.9zm25.7-28.1h15.1l-4.8-13.9-2.3-8.2h-0.9l-2.2 8.2zm48.6 28v-66.5h23.5q8 0 14.5 2.4 6.4 2.4 10.8 6.8 4.5 4.3 6.8 10.5 2.4 6.1 2.4 13.6 0 7.4-2.4 13.5-2.3 6.2-6.8 10.5-4.4 4.4-10.8 6.8-6.5 2.4-14.5 2.4zm14.6-13.7h8.2q5.4 0 9.3-1.4 3.9-1.5 6.4-4.1 2.6-2.6 3.9-6.1 1.2-3.7 1.2-7.9 0-4.3-1.2-7.9-1.3-3.6-3.9-6.2-2.5-2.6-6.4-4-3.9-1.5-9.3-1.5h-8.2zm53.6 13.8v-66.6h27.1q4.4 0 8.3 1.4 3.9 1.4 6.6 3.7 2.8 2.3 4.4 5.5 1.6 3.1 1.6 6.4 0 5.5-2.7 9.1-2.6 3.7-6.2 5.4v1q5.3 1.9 8.2 5.9 3.1 4 3.1 9.9 0 4.2-1.7 7.7-1.7 3.3-4.8 5.8-3 2.3-7.2 3.6-4 1.2-8.9 1.2zm14.5-40.2h11.2q3.9 0 6-1.8 2.2-1.7 2.2-5 0-3.2-2.2-5-2.1-1.8-5.6-1.8h-11.6zm0 27.2h12.4q9 0 9-7.4 0-7.5-9.4-7.5h-12z"/>
	<path id="by fl0w" class="s0" aria-label="by fl0w"  d="m198.2 111.6q-1.9 0-3.6-0.9-1.5-0.8-2.4-2.1h-0.2v2.4h-3.1v-25.8h3.3v8.2l-0.2 2.4h0.2q0.9-1.4 2.4-2.2 1.7-0.8 3.6-0.8 3.5 0 5.9 2.7 2.5 2.8 2.5 6.7 0 3.9-2.5 6.6-2.4 2.8-5.9 2.8zm-0.5-3q2.3 0 4-1.8 1.6-1.8 1.6-4.6 0-2.8-1.6-4.6-1.7-1.8-4-1.8-2.4 0-4.1 1.8-1.6 1.8-1.6 4.6 0 2.8 1.6 4.6 1.7 1.8 4.1 1.8zm23.4-15.2h3.6l-11.1 25.4h-3.4l4.1-8.9-7.3-16.5h3.6l5.3 12.6h0.1z"/>
	<path id="by fl0w" class="s2" aria-label="by fl0w"  d=""/>
	<path id="by fl0w" class="s3" aria-label="by fl0w"  d="m243.7 84.9q1.1 0 2 0.3 1 0.1 1.7 0.4l-1.5 4.8q-0.4-0.2-0.8-0.2-0.5-0.2-1-0.2-1 0-1.5 0.7-0.5 0.6-0.5 1.6v1.1h4.3v4.5h-4.3v13.1h-5.4v-13.1h-3.1v-4.5h3.1v-1.3q0-3.5 1.9-5.3 2-1.9 5.1-1.9zm11.3 26.1h-5.4v-25.8h5.4zm14.1 0.6q-2.4 0-4.4-1-1.9-0.9-3.3-2.7-1.3-1.7-2.1-4-0.7-2.4-0.7-5.2 0-2.8 0.7-5.1 0.8-2.4 2.1-4.1 1.4-1.7 3.3-2.7 2-1 4.4-1 2.4 0 4.4 1 2 1 3.3 2.7 1.4 1.7 2.1 4.1 0.8 2.3 0.8 5.1 0 2.8-0.8 5.2-0.7 2.3-2.1 4-1.3 1.8-3.3 2.7-2 1-4.4 1zm0-5q1.2 0 2.2-0.6 1-0.6 1.6-1.7 0.7-1 1-2.5 0.4-1.4 0.4-3.1 0-1.7-0.4-3.1-0.3-1.5-1-2.5-0.6-1-1.6-1.6-1-0.6-2.2-0.6-1.2 0-2.2 0.6-0.9 0.6-1.6 1.6-0.6 1-1 2.5-0.3 1.4-0.3 3.1 0 1.7 0.3 3.1 0.4 1.5 1 2.5 0.7 1.1 1.6 1.7 1 0.6 2.2 0.6zm17.9 4.4l-5.6-17.6h6.2l2.4 9.9h0.4l3.1-9.9h5.5l3.1 9.9h0.4l2.4-9.9h6.1l-5.6 17.6h-5.9l-3.2-9.9h-0.3l-3.1 9.9z"/>
</svg>